<svg width="200" height="22" viewBox="0 0 200 22" fill="none" xmlns="http://www.w3.org/2000/svg">
<path d="M0.209769 0.419539C1.82799 0.379583 3.21147 0.349615 4.3602 0.329637C5.50894 0.309659 6.43292 0.29967 7.13215 0.29967C9.30976 0.29967 11.0229 0.754171 12.2715 1.66317C13.5201 2.57217 14.1444 3.93567 14.1444 5.75367C14.1444 6.6327 13.8947 7.4518 13.3953 8.21097C12.8958 8.97013 12.2565 9.51953 11.4774 9.85916C11.9768 10.019 12.4513 10.2737 12.9008 10.6233C13.3503 10.9729 13.7349 11.3825 14.0545 11.852C14.3742 12.3214 14.6289 12.8309 14.8187 13.3803C15.0085 13.9297 15.1034 14.4941 15.1034 15.0734C15.1034 17.1312 14.4491 18.6545 13.1405 19.6434C11.832 20.6323 9.97902 21.1268 7.58166 21.1268C6.84247 21.1268 5.86355 21.1168 4.64489 21.0968C3.42623 21.0768 1.94786 21.0469 0.209769 21.0069L0 20.7971V0.629308L0.209769 0.419539ZM7.22206 11.9269H4.73479V17.7705C5.25422 17.7505 5.83858 17.7505 6.48786 17.7705C7.13715 17.7904 7.74148 17.7405 8.30087 17.6206C8.86025 17.5008 9.32974 17.2111 9.70932 16.7516C10.0889 16.2921 10.2787 15.6528 10.2787 14.8337C10.2787 14.0545 10.034 13.3753 9.5445 12.7959C9.05504 12.2166 8.28089 11.9269 7.22206 11.9269V11.9269ZM4.73479 3.68595V8.51064H6.86245C7.8214 8.51064 8.49565 8.2759 8.88523 7.80641C9.2748 7.33693 9.46958 6.76256 9.46958 6.08331C9.46958 5.40406 9.2698 4.83968 8.87024 4.39017C8.47068 3.94067 7.80142 3.71591 6.86245 3.71591H5.64879C5.64879 3.71591 5.34412 3.70592 4.73479 3.68595V3.68595ZM23.1345 14.8936L23.1046 17.0512V17.0812C24.0236 17.0413 24.7628 17.0213 25.3221 17.0213H32.2745C32.2745 17.7605 32.2445 18.3298 32.1846 18.7294C31.9449 20.2677 30.926 21.0369 29.128 21.0369H21.1567C20.2977 21.0369 19.6234 20.7871 19.134 20.2877C18.6445 19.7882 18.3998 19.109 18.3998 18.2499V0.689242L18.6095 0.479473H31.5253C31.6452 1.05884 31.7051 1.68814 31.7051 2.3674C31.7051 3.04665 31.5653 3.75587 31.2856 4.49506H23.1046L23.1345 6.65268V8.75037C23.654 8.7304 24.3332 8.72041 25.1723 8.72041H29.7573C29.9371 9.27979 30.027 9.91909 30.027 10.6383C30.027 11.3575 29.9371 12.0168 29.7573 12.6161H23.1345V14.8936V14.8936ZM40.5754 16.6617C40.036 16.6617 39.6364 16.6517 39.3767 16.6317L38.0881 20.9769C37.6086 21.0968 36.9394 21.1567 36.0803 21.1567C35.1214 21.1567 34.3422 21.0468 33.7429 20.8271L33.593 20.5874L40.1858 0.479473C40.9649 0.359605 41.8739 0.29967 42.9128 0.29967C44.0915 0.29967 45.0305 0.369594 45.7297 0.50944L52.2026 20.6473C51.5033 21.0269 50.7142 21.2167 49.8352 21.2167C48.7963 21.2167 48.0671 21.0369 47.6476 20.6773C47.228 20.3177 46.8684 19.6284 46.5688 18.6095L45.9994 16.6317C45.7397 16.6517 45.3501 16.6617 44.8307 16.6617H40.5754V16.6617ZM40.4855 12.8858L41.6841 12.8559H43.8717C43.9716 12.8559 44.1464 12.8609 44.3962 12.8708C44.6459 12.8808 44.8307 12.8858 44.9506 12.8858L44.4411 11.0279C43.9616 9.34972 43.4122 7.29198 42.7929 4.85466H42.6131C42.4533 5.71372 41.9738 7.62162 41.1747 10.5784L40.4855 12.8858ZM70.6323 0.479473V13.3953C70.6323 15.9525 69.9331 17.9253 68.5346 19.3138C67.1361 20.7022 65.1383 21.3965 62.5412 21.3965C59.9441 21.3965 57.9413 20.7022 56.5328 19.3138C55.1244 17.9253 54.4201 15.9525 54.4201 13.3953V0.479473L54.6299 0.269703H56.398C58.2959 0.269703 59.2448 1.28858 59.2448 3.32634V13.4552C59.2448 14.8537 59.4946 15.8925 59.994 16.5718C60.4935 17.251 61.3425 17.5907 62.5412 17.5907C63.7399 17.5907 64.589 17.251 65.0884 16.5718C65.5879 15.8925 65.8376 14.8537 65.8376 13.4552V0.479473C66.4569 0.359605 67.256 0.29967 68.2349 0.29967C69.1939 0.29967 69.993 0.359605 70.6323 0.479473V0.479473ZM82.6491 4.43512L82.6791 6.65268V20.947C81.9998 21.0668 81.1907 21.1268 80.2517 21.1268C79.3128 21.1268 78.5236 21.0668 77.8843 20.947V4.43512L75.9664 4.46509H72.8798C72.76 3.88573 72.7 3.22146 72.7 2.47228C72.7 1.7231 72.76 1.05884 72.8798 0.479473H87.7135C87.8733 0.998902 87.9533 1.62821 87.9533 2.3674C87.9533 3.10658 87.7535 3.641 87.3539 3.97063C86.9543 4.30027 86.3151 4.46509 85.436 4.46509H84.567L82.6791 4.43512H82.6491ZM97.7225 5.5439L99.7303 0.479473C100.25 0.359605 100.919 0.29967 101.738 0.29967C102.617 0.29967 103.376 0.419539 104.016 0.659275L104.225 0.899011L98.4117 14.6539V20.947C97.7924 21.0668 96.9933 21.1268 96.0144 21.1268C95.0355 21.1268 94.2363 21.0668 93.617 20.947V14.534L87.8334 1.04885C88.7524 0.509439 89.6314 0.239736 90.4705 0.239736C91.3096 0.239736 91.9139 0.384577 92.2835 0.674258C92.6531 0.963939 92.9777 1.4584 93.2574 2.15763L94.6958 5.7237C95.2153 7.0023 95.6648 8.43073 96.0444 10.009H96.2242C96.5438 8.75038 97.0433 7.26201 97.7225 5.5439V5.5439ZM116.662 8.63051V8.2709C116.662 5.31415 115.563 3.83578 113.365 3.83578C112.107 3.83578 111.198 4.41015 110.638 5.55889C110.079 6.70762 109.799 8.40076 109.799 10.6383C109.799 12.8559 110.149 14.504 110.848 15.5829C111.547 16.6617 112.566 17.2011 113.905 17.2011C114.604 17.2011 115.378 17.0363 116.227 16.7066C117.076 16.377 118 15.8526 118.999 15.1334C119.499 15.473 119.963 15.9375 120.393 16.5268C120.822 17.1162 121.087 17.6806 121.187 18.22C120.727 18.6595 120.193 19.074 119.583 19.4636C118.974 19.8532 118.315 20.1878 117.606 20.4675C116.896 20.7472 116.157 20.9719 115.388 21.1417C114.619 21.3116 113.845 21.3965 113.066 21.3965C111.527 21.3965 110.229 21.1018 109.17 20.5124C108.111 19.9231 107.257 19.1389 106.608 18.16C105.958 17.1811 105.489 16.0523 105.199 14.7738C104.91 13.4952 104.765 12.1666 104.765 10.7881C104.765 8.99011 104.99 7.41684 105.439 6.06832C105.889 4.71981 106.498 3.59604 107.267 2.69703C108.036 1.79802 108.94 1.12376 109.979 0.674258C111.018 0.224752 112.127 0 113.305 0C114.504 0 115.593 0.159824 116.572 0.479473C117.551 0.799121 118.385 1.23864 119.074 1.79802C119.763 2.35741 120.293 3.01668 120.662 3.77585C121.032 4.53501 121.217 5.35411 121.217 6.23314C121.217 8.01119 120.308 8.90021 118.49 8.90021C117.95 8.90021 117.341 8.81031 116.662 8.63051V8.63051ZM138.897 6.80252C138.897 7.46179 138.797 8.08611 138.598 8.67546C138.398 9.26481 138.133 9.79423 137.803 10.2637C137.474 10.7332 137.084 11.1427 136.635 11.4924C136.185 11.842 135.721 12.1067 135.241 12.2865C136.28 12.6661 137.049 13.5851 137.549 15.0435L138.448 17.5907C138.787 18.5896 139.287 19.3287 139.946 19.8082C139.646 20.2078 139.197 20.5424 138.598 20.8121C137.998 21.0818 137.339 21.2167 136.62 21.2167C135.901 21.2167 135.341 21.0119 134.942 20.6023C134.542 20.1928 134.172 19.4786 133.833 18.4597L132.754 15.3132C132.534 14.7138 132.24 14.2543 131.87 13.9347C131.5 13.615 130.946 13.4552 130.207 13.4552H128.978V20.947C128.339 21.0668 127.54 21.1268 126.581 21.1268C125.622 21.1268 124.833 21.0668 124.213 20.947V0.629308L124.423 0.419539C126.161 0.379583 127.625 0.349615 128.813 0.329637C130.002 0.309659 130.936 0.29967 131.615 0.29967C132.714 0.29967 133.713 0.434522 134.612 0.704225C135.511 0.973928 136.275 1.37848 136.904 1.91789C137.534 2.4573 138.023 3.13655 138.373 3.95565C138.722 4.77475 138.897 5.7237 138.897 6.80252V6.80252ZM128.978 3.89571V9.76925C129.877 9.76925 130.646 9.75427 131.286 9.7243C131.925 9.69434 132.439 9.57447 132.829 9.3647C133.218 9.15493 133.513 8.86025 133.713 8.48067C133.913 8.10109 134.013 7.55169 134.013 6.83248C134.013 4.89462 133.074 3.92568 131.196 3.92568H129.952C129.952 3.92568 129.627 3.91569 128.978 3.89571V3.89571ZM147.348 14.8936L147.318 17.0512V17.0812C148.237 17.0413 148.976 17.0213 149.536 17.0213H156.488C156.488 17.7605 156.458 18.3298 156.398 18.7294C156.158 20.2677 155.139 21.0369 153.341 21.0369H145.37C144.511 21.0369 143.837 20.7871 143.347 20.2877C142.858 19.7882 142.613 19.109 142.613 18.2499V0.689242L142.823 0.479473H155.739C155.859 1.05884 155.918 1.68814 155.918 2.3674C155.918 3.04665 155.779 3.75587 155.499 4.49506H147.318L147.348 6.65268V8.75037C147.867 8.7304 148.547 8.72041 149.386 8.72041H153.971C154.15 9.27979 154.24 9.91909 154.24 10.6383C154.24 11.3575 154.15 12.0168 153.971 12.6161H147.348V14.8936V14.8936ZM164.789 16.6617C164.249 16.6617 163.85 16.6517 163.59 16.6317L162.301 20.9769C161.822 21.0968 161.153 21.1567 160.294 21.1567C159.335 21.1567 158.556 21.0468 157.956 20.8271L157.806 20.5874L164.399 0.479473C165.178 0.359605 166.087 0.29967 167.126 0.29967C168.305 0.29967 169.244 0.369594 169.943 0.50944L176.416 20.6473C175.717 21.0269 174.928 21.2167 174.049 21.2167C173.01 21.2167 172.28 21.0369 171.861 20.6773C171.441 20.3177 171.082 19.6284 170.782 18.6095L170.213 16.6317C169.953 16.6517 169.563 16.6617 169.044 16.6617H164.789ZM164.699 12.8858L165.898 12.8559H168.085C168.185 12.8559 168.36 12.8609 168.61 12.8708C168.859 12.8808 169.044 12.8858 169.164 12.8858L168.654 11.0279C168.175 9.34972 167.626 7.29198 167.006 4.85466H166.826C166.667 5.71372 166.187 7.62162 165.388 10.5784L164.699 12.8858ZM178.304 20.887L179.892 0.50944C180.771 0.349616 181.81 0.269703 183.009 0.269703C184.207 0.269703 185.256 0.349616 186.155 0.50944L187.923 7.85136C188.623 11.1677 188.992 12.9757 189.032 13.2754H189.242C189.322 12.7759 189.691 10.9679 190.351 7.85136L192.149 0.50944C193.028 0.349616 194.067 0.269703 195.265 0.269703C196.464 0.269703 197.513 0.349616 198.412 0.50944L200 20.887C199.381 21.0468 198.617 21.1268 197.708 21.1268C196.799 21.1268 196.054 21.0768 195.475 20.9769L194.996 12.6461C194.856 9.32974 194.776 7.02228 194.756 5.7237H194.576L191.609 17.9203C190.89 18.0402 190.066 18.1001 189.137 18.1001C188.208 18.1001 187.384 18.0402 186.665 17.9203L183.728 5.7237H183.518C183.518 7.50175 183.438 9.80921 183.278 12.6461L182.829 20.9769C182.25 21.0768 181.505 21.1268 180.596 21.1268C179.687 21.1268 178.923 21.0468 178.304 20.887V20.887Z" fill="url(#paint0_linear_10_9)"/>
<defs>
<linearGradient id="paint0_linear_10_9" x1="0" y1="0" x2="200" y2="0" gradientUnits="userSpaceOnUse">
<stop stop-color="#8F5E25"/>
<stop offset="0.5" stop-color="#FBF4A1"/>
<stop offset="1" stop-color="#8F5E25"/>
</linearGradient>
</defs>
</svg>
